<svg width="342" height="348" viewBox="0 0 342 348" fill="none" xmlns="http://www.w3.org/2000/svg">
<path d="M342 305.817H0V306.051H342V305.817Z" fill="#EBEBEB"/>
<path d="M307.732 320.846H285.078V321.08H307.732V320.846Z" fill="#EBEBEB"/>
<path d="M226.554 323.387H220.61V323.621H226.554V323.387Z" fill="#EBEBEB"/>
<path d="M284.394 312.178H271.268V312.412H284.394V312.178Z" fill="#EBEBEB"/>
<path d="M65.4248 313.747H35.8828V313.981H65.4248V313.747Z" fill="#EBEBEB"/>
<path d="M75.8488 313.747H71.519V313.981H75.8488V313.747Z" fill="#EBEBEB"/>
<path d="M154.003 317.689H89.9255V317.923H154.003V317.689Z" fill="#EBEBEB"/>
<path d="M162.108 264.157H30.0345C28.9999 264.155 28.0082 263.592 27.2773 262.592C26.5463 261.592 26.1357 260.237 26.1357 258.824V5.28688C26.1447 3.88205 26.5593 2.5388 27.2893 1.5489C28.0193 0.559006 29.0058 0.00240655 30.0345 0H162.108C163.144 0 164.137 0.56193 164.87 1.56217C165.602 2.56241 166.014 3.91903 166.014 5.33358V258.824C166.014 260.238 165.602 261.595 164.87 262.595C164.137 263.595 163.144 264.157 162.108 264.157ZM30.0345 0.186816C29.0452 0.189291 28.0971 0.727707 27.3982 1.68389C26.6993 2.64007 26.3067 3.93588 26.3067 5.28688V258.824C26.3067 260.175 26.6993 261.47 27.3982 262.427C28.0971 263.383 29.0452 263.921 30.0345 263.924H162.108C163.098 263.921 164.047 263.383 164.747 262.427C165.447 261.471 165.841 260.175 165.843 258.824V5.28688C165.841 3.93502 165.447 2.63923 164.747 1.68332C164.047 0.727404 163.098 0.189285 162.108 0.186816H30.0345Z" fill="#EBEBEB"/>
<path d="M310.064 264.157H177.984C176.948 264.155 175.956 263.592 175.224 262.592C174.492 261.593 174.08 260.237 174.078 258.824V5.28688C174.089 3.8812 174.505 2.53796 175.236 1.54832C175.967 0.55868 176.954 0.0023803 177.984 0H310.064C311.092 0.0048614 312.076 0.562548 312.805 1.55218C313.534 2.54182 313.947 3.88366 313.956 5.28688V258.824C313.956 260.235 313.547 261.589 312.817 262.588C312.088 263.588 311.098 264.152 310.064 264.157ZM177.984 0.186816C176.994 0.189285 176.045 0.727404 175.345 1.68332C174.645 2.63923 174.251 3.93502 174.249 5.28688V258.824C174.251 260.175 174.645 261.471 175.345 262.427C176.045 263.383 176.994 263.921 177.984 263.924H310.064C311.054 263.921 312.003 263.383 312.703 262.427C313.403 261.471 313.797 260.175 313.799 258.824V5.28688C313.797 3.93502 313.403 2.63923 312.703 1.68332C312.003 0.727404 311.054 0.189285 310.064 0.186816H177.984Z" fill="#EBEBEB"/>
<path d="M199.625 27.6674H137.45V133.536H199.625V27.6674Z" fill="#F5F5F5"/>
<path d="M148.838 41.4824C156.67 33.8229 156.691 29.6196 162.3 38.2038C167.908 46.7879 171.814 57.1749 181.992 51.7572C192.17 46.3396 197.84 60.3601 191.322 73.241C184.803 86.122 187.218 103.776 191.322 112.211C195.426 120.645 193.524 132.013 186.944 125.652C180.364 119.291 171.458 119.3 165.09 123.784C158.722 128.268 151.273 139.355 151.841 119.973C152.409 100.591 145.111 106.662 143.23 96.8638C141.349 87.0654 150.425 93.277 148.838 71.8119C147.252 50.3468 141.896 48.2825 148.838 41.4824Z" fill="#E0E0E0"/>
<path d="M187.142 38.2038C177.621 32.4405 173.586 29.6009 169.126 42.4445C164.666 55.2881 155.678 72.3817 149.194 67.6646C142.71 62.9475 144.673 84.478 157.129 79.079C169.584 73.6801 172.587 76.4076 176.965 89.3539C181.342 102.3 180.309 109.53 185.597 104.804C190.884 100.077 183.586 85.5242 186.582 73.7735C189.578 62.0228 195.692 43.3786 187.142 38.2038Z" fill="#EBEBEB"/>
<path d="M153.777 103.767C157.614 93.7067 152.409 77.6125 162.45 84.3752C172.491 91.138 168.285 117.068 176.917 110.922C185.549 104.775 179.7 87.0374 187.067 86.1687C194.434 85.3 193.634 124.867 182.888 125.671C172.142 126.474 162.867 113.444 159.632 117.946C156.397 122.448 147.368 132.742 145.494 119.992C143.619 107.241 150.822 111.482 153.777 103.767Z" fill="#EBEBEB"/>
<path d="M216.329 135.936H276.753V25.2575L216.329 25.2575V135.936Z" fill="#F5F5F5"/>
<path d="M224.865 36.373C226.609 31.9454 269.845 54.2045 268.682 59.015C267.519 63.8255 234.899 67.814 232.027 74.3246C229.154 80.8351 266.575 89.5127 265.898 93.9402C265.221 98.3677 229.824 94.4259 229.14 98.8254C228.456 103.225 266.445 110.866 263.915 117.507C261.384 124.148 229.845 119.375 226.377 108.166C222.909 96.9573 241.999 97.7232 242.546 90.2973C243.094 82.8714 222.197 81.4235 224.851 69.4954C227.505 57.5672 254.947 66.17 252.389 55.7644C249.831 45.3588 221.555 44.7517 224.865 36.373Z" fill="#E6E6E6"/>
<path d="M257.936 36.9708C263.579 35.1587 270.098 48.9363 263.408 45.8539C256.719 42.7714 252.293 38.7736 257.936 36.9708Z" fill="#EBEBEB"/>
<path d="M232.471 54.3913C232.751 50.5523 224.427 51.2341 224.331 54.3913C224.236 57.5485 232.177 58.3985 232.471 54.3913Z" fill="#EBEBEB"/>
<path d="M263.928 77.5285C260.878 70.663 251.91 73.6334 252.006 76.7999C252.102 79.9664 267.218 84.917 263.928 77.5285Z" fill="#EBEBEB"/>
<path d="M121.622 25.2574H61.1975V135.936H121.622V25.2574Z" fill="#F5F5F5"/>
<path d="M72.4423 106.065C72.4423 106.065 66.7377 45.7698 70.2603 38.5494C73.7829 31.329 81.0197 57.4084 82.3193 51.2995C83.6189 45.1907 84.4397 32.1883 89.1114 33.3186C93.7831 34.4488 92.1415 45.6671 95.753 46.1061C99.3645 46.5451 103.776 31.7586 105.336 33.3186C106.895 34.8785 105.589 45.228 108.537 46.1061C111.485 46.9841 110.678 36.0647 114.522 39.5115C118.366 42.9582 112.292 106.065 112.292 106.065C112.292 106.065 114.597 56.3903 110.582 56.3903C106.567 56.3903 104.932 71.8119 102.306 64.5448C99.6792 57.2776 102.579 52.0375 100.808 51.2995C99.0362 50.5616 95.3358 63.5733 92.5998 61.7706C89.8638 59.9678 91.0061 52.4858 89.1182 51.2995C87.2304 50.1133 94.4055 69.047 83.9335 64.7036C73.4615 60.3601 75.1509 48.5814 73.6735 52.9342C72.1961 57.287 72.4423 106.065 72.4423 106.065Z" fill="#EBEBEB"/>
<path d="M103.434 89.5967C99.3304 82.1988 96.7449 96.5276 92.0937 101.245C87.4425 105.962 89.0977 83.8335 83.0991 89.0176C77.1004 94.2017 81.3754 107.596 77.4013 111.641C73.4273 115.686 74.0908 130.192 78.5505 122.775C83.0101 115.359 82.9281 95.7803 86.2865 108.26C89.6449 120.739 91.1155 132.91 94.0704 122.121C97.0253 111.333 94.4261 94.8649 98.7969 104.271C103.168 113.677 103.27 126.371 107.648 121.197C112.025 116.022 105.035 112.706 105.206 106.98C105.377 101.254 105.165 92.7259 103.434 89.5967Z" fill="#EBEBEB"/>
<path d="M281.507 274.236C281.609 273.302 284.003 250.725 279.209 242.935C278.731 242.114 278.127 241.448 277.439 240.984C276.75 240.521 275.995 240.271 275.228 240.254C265.549 239.946 264.222 250.529 264.208 250.669L265.351 250.912C265.399 250.529 266.548 241.571 275.2 241.833C275.804 241.846 276.398 242.043 276.939 242.41C277.48 242.777 277.954 243.304 278.326 243.953C282.793 251.202 280.378 273.778 280.378 274.002L281.507 274.236Z" fill="#EBEBEB"/>
<path d="M282.095 273.208L283.244 273.152C283.244 272.947 282.861 252.378 290.29 248.119C297.561 243.962 300.837 252.519 300.974 252.883L302.007 252.173C301.965 252.07 298.128 241.898 289.838 246.671C281.685 251.342 282.075 272.312 282.095 273.208Z" fill="#EBEBEB"/>
<path d="M282.061 274.824C282.061 274.497 282.129 241.954 286.774 232.436C291.233 223.301 298.402 227.597 298.737 227.765L299.216 226.336C299.127 226.28 290.823 221.274 285.816 231.539C280.973 241.45 280.905 273.442 280.905 274.806L282.061 274.824Z" fill="#EBEBEB"/>
<path d="M273.839 241.039C273.839 241.039 278.066 243.168 276.815 248.194C275.563 253.219 262.191 261.486 262.191 261.486C262.191 261.486 256.596 254.471 261.732 243.084C266.869 231.698 273.73 237.443 273.839 241.039Z" fill="#E0E0E0"/>
<path d="M286.986 230.717C286.986 230.717 283.983 230.278 284.25 227.784C284.517 225.29 295.919 218.864 302.656 229.251C302.656 229.251 298.34 239.376 292.102 239.526C285.864 239.675 286.986 230.717 286.986 230.717Z" fill="#E0E0E0"/>
<path d="M290.064 247.4C290.064 247.4 288.012 245.111 290.228 244C292.444 242.888 303.429 243.196 303.546 258.011C303.546 258.011 290.768 260.907 289.182 255.255C287.595 249.604 290.064 247.4 290.064 247.4Z" fill="#E0E0E0"/>
<path d="M271.568 304.453H291.391L293.532 274.824H269.434L271.568 304.453Z" fill="#EBEBEB"/>
<path d="M268.381 278.084H294.592V271.546H268.381V278.084Z" fill="#E0E0E0"/>
<path d="M63.7009 277.627C63.7009 277.627 67.5655 266.109 63.1537 254.76C58.7419 243.411 57.456 240.749 60.2741 238.414C63.0921 236.079 64.3781 247.493 64.3781 247.493C64.3781 247.493 66.7515 239.647 64.7885 231.436C62.8254 223.226 61.601 209.85 64.2823 208.411C66.9636 206.973 64.7885 225.094 67.1141 231.278C68.2962 226.938 69.0596 222.407 69.3849 217.799C69.6996 211.204 69.2003 200.677 71.3138 197.978C73.4274 195.278 74.7817 197.146 72.6818 211.699C71.4383 220.397 70.7517 229.227 70.6298 238.087C70.6298 238.087 75.2126 218.995 78.2906 218.471C81.3686 217.948 81.3686 224.076 78.7284 229.456C76.0881 234.836 71.0197 244.401 70.1852 249.371C70.1852 249.371 75.2195 235.005 79.7612 239.413C84.303 243.822 75.8145 252.491 72.0457 255.629C68.2769 258.768 65.664 278.355 65.664 278.355L63.7009 277.627Z" fill="#E0E0E0"/>
<path d="M66.7517 282.344C66.7517 282.344 62.9897 270.752 67.5041 259.496C72.0185 248.241 73.3249 245.588 70.5274 243.206C67.7298 240.824 66.3481 252.201 66.3481 252.201C66.3481 252.201 64.0499 244.308 66.0814 236.135C68.1129 227.962 69.4535 214.651 66.7654 213.129C64.0773 211.606 66.0814 229.802 63.7353 235.929C62.5914 231.57 61.8671 227.027 61.5806 222.413C61.3207 215.809 61.909 205.292 59.8228 202.545C57.7366 199.799 56.4028 201.611 58.3111 216.239C59.4992 224.956 60.1286 233.798 60.1921 242.664C60.1921 242.664 55.7461 223.487 52.6681 222.862C49.5901 222.236 49.5422 228.466 52.1278 233.846C54.7133 239.227 59.7133 248.969 60.4999 253.929C60.4999 253.929 55.5957 239.46 51.0334 243.766C46.4711 248.072 54.8569 256.927 58.6053 260.141C62.3536 263.354 64.7613 283.063 64.7613 283.063L66.7517 282.344Z" fill="#EBEBEB"/>
<path d="M49.3984 274.077H80.4862L77.9691 304.453H51.9156L49.3984 274.077Z" fill="#EBEBEB"/>
<path d="M171 348C244.244 348 303.621 343.266 303.621 337.426C303.621 331.587 244.244 326.853 171 326.853C97.7555 326.853 38.3792 331.587 38.3792 337.426C38.3792 343.266 97.7555 348 171 348Z" fill="#F5F5F5"/>
<path d="M164.783 321.865C164.786 323.213 164.551 324.542 164.099 325.741C163.718 326.791 163.115 327.66 162.368 328.235C162.368 328.235 159.803 330.337 159.454 330.542C158.981 330.817 158.471 330.96 157.956 330.962C155.166 330.962 152.908 326.937 152.908 321.967C152.887 319.805 153.353 317.685 154.242 315.896L152.607 303.575L148.428 271.639L139.399 203.19H146.13L155.138 271.639L159.372 303.575L160.74 314.327L162.149 315.354C163.688 316.279 164.783 318.838 164.783 321.865Z" fill="#263238"/>
<path opacity="0.4" d="M164.783 321.865C164.786 323.213 164.551 324.542 164.099 325.741C163.718 326.791 163.115 327.66 162.368 328.235C162.368 328.235 159.803 330.337 159.454 330.542C158.981 330.817 158.471 330.96 157.956 330.962C155.166 330.962 152.908 326.937 152.908 321.967C152.887 319.805 153.353 317.685 154.242 315.896L152.607 303.575L148.428 271.639L139.399 203.19H146.13L155.138 271.639L159.372 303.575L160.74 314.327L162.149 315.354C163.688 316.279 164.783 318.838 164.783 321.865Z" fill="white"/>
<path opacity="0.2" d="M164.782 321.865C164.782 325.666 163.052 328.758 160.918 328.758C158.784 328.758 157.046 325.666 157.046 321.865C157.046 318.063 158.777 314.971 160.918 314.971C163.059 314.971 164.782 318.053 164.782 321.865Z" fill="white"/>
<path opacity="0.2" d="M159.338 303.575H152.607L148.408 271.639L139.399 203.19H146.13L155.138 271.639L159.338 303.575Z" fill="black"/>
<path d="M281.384 223.992H251.24V235.761H281.384V223.992Z" fill="#263238"/>
<path d="M278.744 260.197L288.251 195.11C288.299 194.784 288.293 194.448 288.234 194.125C288.175 193.802 288.064 193.502 287.91 193.244C287.755 192.987 287.561 192.78 287.341 192.637C287.121 192.495 286.881 192.421 286.637 192.42H283.744C283.179 192.42 282.632 192.687 282.196 193.176C281.759 193.665 281.46 194.345 281.35 195.101L271.835 260.187C271.788 260.514 271.794 260.85 271.853 261.173C271.912 261.495 272.023 261.796 272.177 262.053C272.331 262.31 272.526 262.518 272.746 262.66C272.966 262.803 273.206 262.877 273.45 262.877H276.336C276.903 262.882 277.453 262.616 277.892 262.127C278.332 261.638 278.633 260.956 278.744 260.197Z" fill="#263238"/>
<path d="M286.357 221.059H280.515C278.757 221.059 277.342 224.795 277.342 229.466C277.342 234.136 278.757 237.872 280.515 237.872H286.357C288.108 237.872 289.53 234.136 289.53 229.466C289.53 224.795 288.108 221.059 286.357 221.059Z" fill="#263238"/>
<path opacity="0.2" d="M289.141 229.484C289.141 232.95 288.135 235.752 286.89 235.752C285.645 235.752 284.633 232.95 284.633 229.484C284.633 226.019 285.645 223.207 286.89 223.207C288.135 223.207 289.141 226.047 289.141 229.484Z" fill="white"/>
<path opacity="0.2" d="M278.744 260.197L288.251 195.11C288.299 194.784 288.293 194.448 288.234 194.125C288.175 193.802 288.064 193.502 287.91 193.244C287.755 192.987 287.561 192.78 287.341 192.637C287.121 192.495 286.881 192.421 286.637 192.42H283.744C283.179 192.42 282.632 192.687 282.196 193.176C281.759 193.665 281.46 194.345 281.35 195.101L271.835 260.187C271.788 260.514 271.794 260.85 271.853 261.173C271.912 261.495 272.023 261.796 272.177 262.053C272.331 262.31 272.526 262.518 272.746 262.66C272.966 262.803 273.206 262.877 273.45 262.877H276.336C276.903 262.882 277.453 262.616 277.892 262.127C278.332 261.638 278.633 260.956 278.744 260.197Z" fill="white"/>
<path d="M278.327 313.962V334.736H123.592V328.954H155.809L160.74 313.962H278.327Z" fill="#263238"/>
<path opacity="0.2" d="M278.327 313.962V334.736H219.352V328.954H251.568L256.5 313.962H278.327Z" fill="white"/>
<path d="M274.223 321.865C274.226 323.213 273.991 324.542 273.539 325.741C273.158 326.791 272.555 327.66 271.808 328.235C271.808 328.235 269.243 330.337 268.894 330.542C268.42 330.817 267.911 330.96 267.396 330.962C264.606 330.962 262.348 326.937 262.348 321.967C262.337 319.8 262.815 317.68 263.716 315.896L262.047 303.575L257.868 271.639L248.839 203.19H255.57L264.578 271.639L268.812 303.575L270.18 314.327L271.589 315.354C273.128 316.279 274.223 318.838 274.223 321.865Z" fill="#263238"/>
<path opacity="0.4" d="M274.223 321.865C274.226 323.213 273.991 324.542 273.539 325.741C273.158 326.791 272.555 327.66 271.808 328.235C271.808 328.235 269.243 330.337 268.894 330.542C268.42 330.817 267.911 330.96 267.396 330.962C264.606 330.962 262.348 326.937 262.348 321.967C262.337 319.8 262.815 317.68 263.716 315.896L262.047 303.575L257.868 271.639L248.839 203.19H255.57L264.578 271.639L268.812 303.575L270.18 314.327L271.589 315.354C273.128 316.279 274.223 318.838 274.223 321.865Z" fill="white"/>
<path opacity="0.2" d="M274.223 321.865C274.223 325.666 272.492 328.758 270.358 328.758C268.224 328.758 266.487 325.666 266.487 321.865C266.487 318.063 268.217 314.971 270.358 314.971C272.499 314.971 274.223 318.053 274.223 321.865Z" fill="white"/>
<path opacity="0.2" d="M268.778 303.575H262.047L257.848 271.639L248.839 203.19H255.57L264.578 271.639L268.778 303.575Z" fill="black"/>
<path d="M257.683 298.046H114.611C111.581 298.046 109.618 294.636 110.234 290.442L129.659 157.542C129.993 155.459 130.821 153.585 132.015 152.21C133.208 150.835 134.7 150.037 136.26 149.938H279.332C282.362 149.938 284.325 153.348 283.716 157.542L264.291 290.442C263.955 292.526 263.126 294.4 261.932 295.774C260.737 297.149 259.244 297.947 257.683 298.046Z" fill="#263238"/>
<path opacity="0.1" d="M257.683 298.046H114.611C111.581 298.046 109.618 294.636 110.234 290.442L129.659 157.542C129.993 155.459 130.821 153.585 132.015 152.21C133.208 150.835 134.7 150.037 136.26 149.938H279.332C282.362 149.938 284.325 153.348 283.716 157.542L264.291 290.442C263.955 292.526 263.126 294.4 261.932 295.774C260.737 297.149 259.244 297.947 257.683 298.046Z" fill="white"/>
<path d="M250.378 276.179H128.312L144.953 162.333H267.013L250.378 276.179Z" fill="#24A19C"/>
<path opacity="0.2" d="M266.329 241.777H260.919C260.631 241.789 260.345 241.709 260.083 241.543C259.822 241.377 259.593 241.13 259.415 240.821C259.237 240.512 259.114 240.15 259.057 239.764C258.999 239.379 259.009 238.98 259.086 238.601L263.34 209.383C263.479 208.517 263.822 207.737 264.316 207.162C264.81 206.587 265.428 206.248 266.076 206.198H271.548C271.837 206.185 272.124 206.265 272.386 206.432C272.648 206.598 272.877 206.847 273.056 207.156C273.235 207.466 273.359 207.829 273.416 208.216C273.474 208.602 273.464 209.002 273.388 209.383L269.113 238.601C268.972 239.477 268.623 240.264 268.119 240.839C267.615 241.414 266.985 241.744 266.329 241.777Z" fill="white"/>
<path opacity="0.2" d="M271.384 214.903C271.152 216.356 270.575 217.664 269.742 218.624C268.91 219.583 267.869 220.14 266.781 220.209C266.3 220.228 265.824 220.092 265.388 219.814C264.953 219.536 264.572 219.122 264.274 218.607C263.977 218.091 263.773 217.487 263.677 216.844C263.581 216.201 263.597 215.537 263.723 214.903C263.957 213.452 264.535 212.146 265.367 211.189C266.199 210.231 267.239 209.675 268.327 209.607C268.807 209.587 269.283 209.721 269.719 209.998C270.154 210.275 270.536 210.688 270.833 211.203C271.13 211.718 271.335 212.321 271.431 212.963C271.527 213.606 271.511 214.271 271.384 214.903Z" fill="black"/>
<path opacity="0.2" d="M265.769 237.938H262.608C262.501 237.943 262.394 237.914 262.296 237.852C262.198 237.79 262.112 237.698 262.046 237.582C261.979 237.466 261.933 237.331 261.912 237.187C261.891 237.042 261.895 236.893 261.924 236.751L264.079 222.021C264.13 221.696 264.259 221.404 264.444 221.189C264.63 220.975 264.862 220.85 265.105 220.835H268.265C268.373 220.829 268.48 220.859 268.578 220.92C268.676 220.982 268.761 221.075 268.828 221.19C268.895 221.306 268.94 221.441 268.962 221.586C268.983 221.73 268.978 221.879 268.949 222.021L266.795 236.751C266.743 237.076 266.615 237.369 266.429 237.583C266.244 237.798 266.011 237.922 265.769 237.938Z" fill="black"/>
<path d="M147.573 214.147C147.573 214.147 158.168 195.241 164.783 190.982C171.397 186.722 170.316 210.756 174.646 217.033C178.976 223.31 188.449 197.09 194.94 194.867C201.431 192.644 197.478 227.504 203.244 235.752C209.01 244 249.715 186.731 249.715 186.731L247.485 193.756L253.183 185.629L247.485 197.09L251.24 192.42C251.24 192.42 232.334 222.619 215.392 237.938C198.449 253.257 195.754 237.004 195.754 231.287C195.754 225.57 195.85 206.824 193.093 206.198C190.337 205.572 179.516 227.429 174.372 229.251C169.229 231.072 167.608 220.844 167.608 220.844C167.608 220.844 169.66 224.309 172.69 224.001C172.69 224.001 169.236 224.197 167.902 214.156C166.568 204.115 165.733 196.352 162.758 199.304C159.783 202.256 150.856 217.052 150.856 217.052L152.115 211.84L144.324 223.992L150.822 211.849L147.573 214.147Z" fill="white"/>
<path d="M139.324 271.266H132.833L134.057 262.896H140.549L139.324 271.266Z" fill="white"/>
<path opacity="0.8" d="M146.978 271.266H140.48L141.704 262.896H148.195L146.978 271.266Z" fill="white"/>
<path opacity="0.6" d="M154.618 271.266H148.127L149.352 262.896H155.843L154.618 271.266Z" fill="white"/>
<path opacity="0.4" d="M162.266 271.266H155.774L156.999 262.896H163.49L162.266 271.266Z" fill="white"/>
<path opacity="0.2" d="M169.913 271.266H163.421L164.646 262.896H171.137L169.913 271.266Z" fill="white"/>
<path d="M207.549 108.207L166.976 122.836L170.056 138.767L210.629 124.138L207.549 108.207Z" fill="#407BFF"/>
<path opacity="0.6" d="M207.549 108.207L166.976 122.836L170.056 138.767L210.629 124.138L207.549 108.207Z" fill="white"/>
<path d="M176.088 121.156L169.467 123.58L171.893 135.939L178.514 133.515L176.088 121.156Z" fill="#263238"/>
<path opacity="0.8" d="M182.045 119.187L175.445 121.567L177.827 133.885L184.427 131.506L182.045 119.187Z" fill="#263238"/>
<path opacity="0.6" d="M190.329 115.918L183.707 118.342L186.133 130.7L192.754 128.277L190.329 115.918Z" fill="#263238"/>
<path opacity="0.4" d="M196.252 114.056L189.652 116.436L192.034 128.755L198.634 126.375L196.252 114.056Z" fill="#263238"/>
<path opacity="0.2" d="M204.571 110.689L197.949 113.112L200.375 125.471L206.996 123.047L204.571 110.689Z" fill="#263238"/>
<path d="M210.686 107.484H168.722V123.961H210.686V107.484Z" fill="#407BFF"/>
<path opacity="0.7" d="M210.686 107.484H168.722V123.961H210.686V107.484Z" fill="white"/>
<path d="M176.622 109.194H169.796V121.935H176.622V109.194Z" fill="#24A19C"/>
<path opacity="0.8" d="M183.975 109.194H177.149V121.935H183.975V109.194Z" fill="#24A19C"/>
<path opacity="0.6" d="M191.322 109.194H184.495V121.935H191.322V109.194Z" fill="#24A19C"/>
<path opacity="0.4" d="M198.675 109.194H191.848V121.935H198.675V109.194Z" fill="#24A19C"/>
<path opacity="0.2" d="M206.027 109.194H199.201V121.935H206.027V109.194Z" fill="#24A19C"/>
<path d="M208.989 122.953C209.401 122.953 209.735 122.497 209.735 121.935C209.735 121.372 209.401 120.916 208.989 120.916C208.577 120.916 208.244 121.372 208.244 121.935C208.244 122.497 208.577 122.953 208.989 122.953Z" fill="#263238"/>
<path d="M211.794 126.465C211.795 126.661 211.767 126.855 211.711 127.036C211.655 127.217 211.572 127.38 211.469 127.515C211.365 127.651 211.242 127.756 211.107 127.825C210.973 127.893 210.829 127.923 210.686 127.913C209.523 127.913 208.764 126.297 208.346 124.97L209.03 124.727C209.393 125.83 209.954 126.951 210.679 126.951C210.905 126.951 211.062 126.857 211.082 126.39C211.066 125.598 210.883 124.83 210.556 124.176C210.385 123.748 210.153 123.371 209.873 123.068C209.594 122.764 209.272 122.541 208.928 122.411C208.845 122.379 208.773 122.306 208.727 122.207C208.681 122.108 208.664 121.988 208.678 121.872C208.693 121.756 208.738 121.652 208.806 121.579C208.873 121.506 208.958 121.469 209.044 121.477C209.496 121.595 209.918 121.872 210.268 122.28C210.725 122.791 211.097 123.428 211.36 124.149C211.623 124.87 211.771 125.66 211.794 126.465Z" fill="#263238"/>
<g opacity="0.2">
<path d="M211.794 126.465C211.795 126.661 211.767 126.855 211.711 127.036C211.655 127.217 211.572 127.38 211.469 127.515C211.365 127.651 211.242 127.756 211.107 127.825C210.973 127.893 210.829 127.923 210.686 127.913C209.523 127.913 208.764 126.297 208.346 124.97L209.03 124.727C209.393 125.83 209.954 126.951 210.679 126.951C210.905 126.951 211.062 126.857 211.082 126.39C211.066 125.598 210.883 124.83 210.556 124.176C210.385 123.748 210.153 123.371 209.873 123.068C209.594 122.764 209.272 122.541 208.928 122.411C208.845 122.379 208.773 122.306 208.727 122.207C208.681 122.108 208.664 121.988 208.678 121.872C208.693 121.756 208.738 121.652 208.806 121.579C208.873 121.506 208.958 121.469 209.044 121.477C209.496 121.595 209.918 121.872 210.268 122.28C210.725 122.791 211.097 123.428 211.36 124.149C211.623 124.87 211.771 125.66 211.794 126.465Z" fill="white"/>
</g>
<path d="M250.707 125.307C253.839 134.75 255.96 146.155 253.183 149.938C250.406 153.721 240.823 139.944 240.823 139.944L242.977 137.954C242.977 137.954 249.708 142.792 250.057 142.466C250.406 142.139 247.485 128.51 247.485 128.51L250.707 125.307Z" fill="#EBB376"/>
<path d="M204.434 127.595C203.94 127.05 203.47 126.467 203.025 125.848C202.437 125.008 196.151 125.092 195.863 126.016C195.576 126.941 196.78 131.163 197.827 131.621C198.873 132.079 203.298 131.425 204.037 130.818C204.776 130.21 204.434 127.595 204.434 127.595Z" fill="#EBB376"/>
<path d="M231.397 316.559L227.772 316.652C224.058 292.852 221.438 263.41 219.803 241.17C219.55 237.685 219.311 234.388 219.119 231.306C219.024 229.849 218.928 228.438 218.839 227.093C218.401 220.405 218.1 215.109 217.922 211.84C217.793 209.448 217.724 208.103 217.724 208.103H230.918L230.795 212.69L230.385 227.85L230.344 229.578L230.07 239.582L229.605 256.619C234.099 280.616 231.397 316.559 231.397 316.559Z" fill="#EBB376"/>
<path d="M260.994 315.279L257.403 316.213C250.207 291.656 243.449 260.169 239.051 238.227C238.367 234.827 237.745 231.689 237.184 228.756C237.184 228.606 237.136 228.466 237.102 228.326C235.994 222.591 235.145 218.051 234.612 215.118L233.976 211.606L246.972 208.542L247.704 216.015L248.805 226.981L249.017 229.129L249.756 236.602L251.712 256.647C259.181 279.233 260.994 315.279 260.994 315.279Z" fill="#EBB376"/>
<path opacity="0.2" d="M248.805 226.981L237.177 228.756C237.177 228.606 237.129 228.466 237.095 228.326C235.987 222.591 235.139 218.051 234.605 215.118L247.711 216.005L248.805 226.981Z" fill="black"/>
<path opacity="0.2" d="M230.761 212.699L230.351 227.859L230.31 229.587L219.085 231.287C218.989 229.83 218.894 228.419 218.805 227.074C218.367 220.386 218.066 215.09 217.888 211.821L230.761 212.699Z" fill="black"/>
<path d="M220.61 333.101C221.292 332.354 222.066 331.778 222.895 331.401C222.895 331.401 225.385 328.039 226.582 317.895L229.838 316.736C230.389 316.555 230.969 316.608 231.497 316.891C232.025 317.173 232.478 317.67 232.793 318.315C232.887 318.493 232.959 318.692 233.005 318.904C233.169 319.989 233.285 321.087 233.353 322.191C233.53 325.898 233.544 329.616 233.394 333.326H232.806L232.574 326.339C232.492 323.966 231.158 326.75 230.775 329.309C230.392 331.868 229.591 334.577 225.782 334.708C221.336 334.83 219.489 334.587 220.61 333.101Z" fill="#24A19C"/>
<path d="M232.909 318.399C233.121 316.027 233.189 311.861 233.189 311.861L225.959 312.963C225.959 312.963 226.835 317.633 226.11 321.173C229.756 319.903 232.909 318.399 232.909 318.399Z" fill="#24A19C"/>
<path d="M250.036 333.101C250.717 332.352 251.491 331.776 252.321 331.401C252.321 331.401 254.81 328.039 256.007 317.895L259.256 316.736C259.809 316.554 260.389 316.607 260.919 316.89C261.449 317.172 261.902 317.67 262.218 318.315C262.311 318.493 262.381 318.692 262.423 318.904C262.594 319.987 262.711 321.086 262.772 322.191C263.1 325.629 262.82 333.326 262.82 333.326H262.232L261.999 326.339C261.91 323.966 260.583 326.75 260.2 329.309C259.817 331.868 259.01 334.577 255.2 334.708C250.761 334.83 248.914 334.587 250.036 333.101Z" fill="#24A19C"/>
<path d="M262.334 318.399C262.546 316.027 262.615 311.861 262.615 311.861L255.385 312.963C255.385 312.963 256.261 317.633 255.535 321.173C259.181 319.903 262.334 318.399 262.334 318.399Z" fill="#24A19C"/>
<path d="M240.994 106.419C240.941 106.483 240.884 106.539 240.823 106.588C239.992 107.455 239.043 108.09 238.032 108.456C235.077 109.39 233.059 108.839 231.739 107.008C229.899 104.271 229.434 99.4232 229.687 93.5666C229.733 91.2372 230.05 88.9326 230.624 86.7385C230.624 86.7385 230.624 86.6544 230.624 86.6357C230.624 86.617 230.672 86.4582 230.7 86.3835C231.062 85.1469 231.645 84.0534 232.395 83.202C233.145 82.3506 234.039 81.7682 234.995 81.5076C235.826 81.2585 236.675 81.1301 237.526 81.1247C245.898 81.0032 247.396 99.9463 240.994 106.419Z" fill="#EBB376"/>
<path opacity="0.2" d="M240.823 106.588C239.985 107.405 239.036 107.986 238.032 108.297C235.077 109.231 233.059 108.54 231.739 106.69C233.507 107.288 235.369 107.078 237.04 106.093C238.237 105.345 239.564 105.728 240.823 106.588Z" fill="black"/>
<path d="M241.671 116.891C242.184 120.141 239.106 121.467 239.106 121.467C234.065 118.525 233.135 114.864 233.135 114.864C237.334 111.875 236.117 103.402 236.117 103.402L236.972 103.982L242.977 105.579C242.977 105.579 241.308 109.95 241.089 110.94C239.954 116.171 241.671 116.891 241.671 116.891Z" fill="#EBB376"/>
<path d="M230.624 86.6638C230.624 86.6638 230.159 94.6595 235.713 98.0969C235.713 98.0969 238.094 106.41 241.609 106.504C246.397 106.672 250.604 97.3683 248.949 87.9061C246.801 75.6603 233.176 74.6422 230.624 86.6638Z" fill="#263238"/>
<path d="M232.902 95.799C232.902 94.5567 233.641 92.455 235.057 92.7446C236.472 93.0342 237.341 97.9848 233.73 99.087C233.244 99.2458 232.895 98.4051 232.902 95.799Z" fill="#EBB376"/>
<path d="M240.823 78.1636C240.823 78.1636 235.234 76.2301 232.143 79.2939C228.538 82.8807 227.17 86.589 231.459 92.3709C231.459 92.3709 240.843 88.2143 243.962 89.1017C245.787 89.606 247.578 90.3152 249.318 91.222C249.954 82.7313 243.942 76.4262 240.823 78.1636Z" fill="#263238"/>
<path d="M233.135 78.5279C233.483 77.3884 234.195 74.9131 236.308 76.2768C238.422 77.6406 239.975 74.6795 241.329 75.1746C242.683 75.6697 244.065 77.734 244.961 77.5565C245.409 77.4573 245.868 77.4909 246.306 77.655C246.744 77.8191 247.151 78.11 247.499 78.5077C247.847 78.9055 248.129 79.401 248.325 79.9605C248.521 80.52 248.626 81.1305 248.634 81.7505C248.798 85.739 251.37 85.8885 251.609 88.2237C251.849 90.5589 250.707 91.549 251.609 93.7721C252.512 95.9952 253.867 95.9485 252.786 99.1057C251.705 102.263 250.44 103.094 251.794 105.7C253.148 108.306 252.15 110.772 250.166 111.875C250.166 111.875 247.553 108.306 246.288 109.782C245.023 111.258 242.293 113.21 241.09 110.94C240.883 110.52 240.606 110.172 240.281 109.927C239.957 109.681 239.594 109.544 239.223 109.528C238.852 109.511 238.484 109.616 238.148 109.832C237.813 110.048 237.52 110.371 237.293 110.772C236.821 111.996 234.557 109.782 233.135 109.782C231.712 109.782 230.953 111.977 230.953 111.977C230.953 111.977 229.024 111.258 229.619 107.204C230.214 103.15 231.534 91.8012 230.611 88.5973C229.687 85.3934 233.135 78.5279 233.135 78.5279Z" fill="#263238"/>
<path d="M224.947 116.106C224.947 116.106 231.616 113.042 241.671 116.778C251.726 120.515 250.707 125.307 250.707 125.307C250.707 125.307 243.114 143.895 242.116 164.958L220.528 162.091C220.528 162.091 218.148 128.753 224.947 116.106Z" fill="#263238"/>
<path d="M219.694 163.996L220.125 158.195L242.977 161.325L242.498 165.874C251.103 186.685 249.024 210.41 249.024 210.41L250.063 222.086C250.063 222.086 247.909 223.908 233.429 225.197C220.699 226.336 217.464 224.534 217.464 224.534C212.95 188.422 216.828 171.235 219.694 163.996Z" fill="#24A19C"/>
<path opacity="0.6" d="M250.057 222.086C250.057 222.086 247.902 223.908 233.422 225.197C220.693 226.336 217.457 224.534 217.457 224.534C217.307 223.338 217.17 222.17 217.04 221.022C214.304 196.978 215.405 181.79 217.279 172.515C217.844 169.559 218.654 166.701 219.694 163.996L219.851 161.904L220.125 158.167L242.977 161.297L242.499 165.846C251.103 186.657 249.024 210.382 249.024 210.382L249.845 219.63L250.057 222.086Z" fill="white"/>
<path d="M229.578 164.398L219.297 163.286L219.434 159.036L229.81 160.521L229.578 164.398Z" fill="#263238"/>
<path d="M239.872 165.509L230.316 164.482L230.549 160.624L240.077 161.988L239.872 165.509Z" fill="#263238"/>
<path d="M240.816 162.091L243.244 162.445L242.936 165.846L240.611 165.593L240.816 162.091Z" fill="#263238"/>
<path opacity="0.3" d="M235.296 183.35C235.248 185.695 235.187 187.469 235.187 187.469L230.747 192.42L223.176 187.843C223.309 186.221 223.373 184.59 223.367 182.958C223.401 179.455 223.299 175.41 223.23 173.215C223.196 172.216 223.176 171.599 223.176 171.599L235.187 173.552C235.221 173.897 235.248 174.308 235.269 174.757C235.405 177.092 235.371 180.604 235.296 183.35Z" fill="white"/>
<path opacity="0.3" d="M246.924 187.348L244.038 191.878L239.708 188.086C239.702 186.653 239.641 185.222 239.523 183.799C239.288 180.802 238.939 177.825 238.477 174.878C238.347 174.047 238.265 173.552 238.265 173.552H244.667C244.728 173.804 244.797 174.056 244.852 174.318C245.504 177.115 246.022 179.966 246.404 182.855C246.746 185.489 246.924 187.348 246.924 187.348Z" fill="white"/>
<path opacity="0.15" d="M235.296 183.35C235.248 185.695 235.187 187.469 235.187 187.469L230.747 192.42L223.176 187.843C223.309 186.221 223.373 184.59 223.367 182.958C226.083 183.569 228.546 185.5 230.303 188.394C230.821 187.113 231.535 185.999 232.397 185.129C233.259 184.259 234.247 183.652 235.296 183.35Z" fill="black"/>
<path opacity="0.15" d="M223.244 173.215C223.209 172.216 223.189 171.599 223.189 171.599L235.2 173.552C235.234 173.897 235.262 174.308 235.282 174.757L223.244 173.215Z" fill="black"/>
<path opacity="0.15" d="M244.872 174.318L238.497 174.878C238.367 174.047 238.285 173.552 238.285 173.552H244.687C244.715 173.804 244.783 174.056 244.872 174.318Z" fill="black"/>
<path opacity="0.15" d="M246.924 187.348L244.037 191.878L239.708 188.086C239.702 186.653 239.64 185.222 239.523 183.798C240.518 184.23 241.436 184.946 242.214 185.897C242.992 186.849 243.613 188.015 244.037 189.319C244.037 189.319 244.106 184.994 246.404 182.855C246.746 185.489 246.924 187.348 246.924 187.348Z" fill="black"/>
<path opacity="0.15" d="M250.057 222.086C250.057 222.086 247.902 223.908 233.422 225.197C220.693 226.336 217.457 224.534 217.457 224.534C217.307 223.338 217.17 222.17 217.04 221.021L218.367 221.106C217.724 213.717 215.85 188.562 218.675 174.757C218.18 174.055 217.723 173.306 217.307 172.515C217.871 169.559 218.681 166.701 219.721 163.996L219.879 161.904C220.339 161.952 220.796 162.046 221.247 162.184V163.118C221.247 163.118 217.888 179.474 217.888 195.671C217.873 204.221 218.347 212.759 219.304 221.208C229.495 221.706 239.699 221.204 249.838 219.704L250.057 222.086Z" fill="black"/>
<g opacity="0.3">
<path d="M229.578 164.398L219.297 163.286L219.434 159.036L229.81 160.521L229.578 164.398Z" fill="white"/>
<path d="M239.872 165.509L230.317 164.482L230.549 160.624L240.077 161.988L239.872 165.509Z" fill="white"/>
<path d="M240.816 162.091L243.244 162.445L242.936 165.846L240.611 165.593L240.816 162.091Z" fill="white"/>
</g>
<path d="M204.434 127.595L203.244 129.949C203.244 129.949 209.735 143.624 214.516 142.391C219.297 141.158 225.788 127.978 226.691 124.036C227.594 120.094 228.517 115.443 224.947 116.106C221.376 116.769 216.951 134.152 213.791 136.105C210.631 138.057 204.434 127.595 204.434 127.595Z" fill="#EBB376"/>
<path d="M77.6956 85.8791C77.6956 85.8791 88.4754 86.0192 91.5466 88.0929C94.6178 90.1665 84.9871 104.187 81.868 101.768C78.749 99.3485 74.686 91.7264 77.6956 85.8791Z" fill="#407BFF"/>
<path opacity="0.2" d="M77.6956 85.8791C77.6956 85.8791 88.4754 86.0192 91.5466 88.0929C94.6178 90.1665 84.9871 104.187 81.868 101.768C78.749 99.3485 74.686 91.7264 77.6956 85.8791Z" fill="black"/>
<path d="M77.6409 325.862H70.712C70.5988 325.863 70.4892 325.916 70.4009 326.013C70.3127 326.109 70.2511 326.244 70.2263 326.395L69.0841 333.335C69.0614 333.486 69.0612 333.642 69.0835 333.793C69.1059 333.944 69.1503 334.088 69.2141 334.215C69.2779 334.342 69.3599 334.451 69.4551 334.534C69.5502 334.617 69.6567 334.673 69.7681 334.699H69.9527C72.1963 334.643 73.831 334.456 76.6491 334.456C78.3796 334.456 83.6191 334.708 86.0131 334.708C88.4071 334.708 88.7491 331.476 87.7367 331.177C83.3386 329.87 80.0281 328.057 78.619 326.329C78.3504 326.005 77.9992 325.837 77.6409 325.862Z" fill="#24A19C"/>
<path d="M107.046 325.61H100.11C99.9967 325.613 99.8869 325.668 99.7988 325.766C99.7107 325.864 99.6494 326 99.6248 326.152L98.4962 333.092C98.4515 333.39 98.4946 333.701 98.6163 333.956C98.7379 334.211 98.9282 334.391 99.146 334.456H99.3375C101.574 334.409 103.209 334.222 106.027 334.222C107.764 334.222 112.997 334.465 115.391 334.465C117.785 334.465 118.127 331.233 117.122 330.934C112.723 329.627 109.413 327.815 108.004 326.087C107.741 325.765 107.398 325.595 107.046 325.61Z" fill="#24A19C"/>
<path d="M73.9679 150.387H104.255C107.135 171.87 116.15 259.066 109.68 326.778H99.4195C99.4195 326.778 100.37 223.945 91.321 190.711C90.2744 208.458 79.693 326.712 79.693 326.712H69.262C69.262 326.712 70.8215 282.241 72.381 240.235C73.366 213.764 73.9268 155.804 73.9679 150.387Z" fill="#263238"/>
<path opacity="0.2" d="M91.3279 190.701C92.818 196.525 93.9505 202.508 94.7137 208.589C95.555 192.766 92.1692 175.98 92.1692 175.98L91.3279 190.701Z" fill="black"/>
<path d="M68.5232 90.9979C78.3448 89.6131 88.2471 89.6788 98.0583 91.194C98.0583 91.194 103.099 122.719 103.606 152.843H73.1128C73.1128 152.843 73.0855 110.315 68.5232 90.9979Z" fill="#24A19C"/>
<path opacity="0.6" d="M68.5232 90.9979C78.3448 89.6131 88.2471 89.6788 98.0583 91.194C98.0583 91.194 103.099 122.719 103.606 152.843H73.1128C73.1128 152.843 73.0855 110.315 68.5232 90.9979Z" fill="white"/>
<path d="M79.2485 91.8292C81.8683 95.0798 88.2842 93.8841 88.2842 93.8841C88.2842 93.8841 92.2924 92.3803 91.4511 90.6709C89.0913 90.1385 87.949 88.6346 87.4771 86.7104C87.2186 85.5177 87.1372 84.2665 87.2377 83.0302C87.2768 82.3408 87.3431 81.6549 87.436 80.9752L79.5016 72.9515C80.5413 78.2477 81.8135 87.9901 79.2485 91.8292Z" fill="#E4897B"/>
<path opacity="0.2" d="M81.3345 78.0515C81.6491 84.5901 85.5616 86.3461 87.4905 86.7104C87.232 85.5177 87.1506 84.2664 87.2511 83.0301L81.3345 78.0515Z" fill="black"/>
<path d="M95.76 57.9128C95.76 57.9128 96.9433 68.3465 92.894 72.3723C88.8448 76.3982 88.79 56.9787 88.79 56.9787L95.76 57.9128Z" fill="#263238"/>
<path d="M81.1431 80.7137C81.9993 82.4259 83.2425 83.7081 84.6828 84.3643C86.123 85.0205 87.681 85.0145 89.1185 84.3472C90.9907 83.5326 92.5641 81.7716 93.5166 79.4246C93.6497 79.1 93.7707 78.7665 93.8791 78.4252C95.8627 72.0361 96.4715 60.8739 91.5262 56.7172C89.8363 55.2805 87.7983 54.8169 85.8586 55.4279C83.9189 56.0389 82.2356 57.6748 81.1773 59.9771C80.5453 61.3408 80.1608 62.8907 80.0555 64.4981C79.4673 71.924 78.8653 76.3048 81.1431 80.7137Z" fill="#E4897B"/>
<path d="M88.0239 68.4492C87.9213 69.0377 88.1197 69.5981 88.4138 69.6635C88.7079 69.7289 88.9952 69.2899 89.0978 68.6827C89.2004 68.0756 88.9952 67.5431 88.7079 67.4778C88.4207 67.4124 88.106 67.8421 88.0239 68.4492Z" fill="#263238"/>
<path d="M93.0241 69.5981C92.9215 70.1866 93.1267 70.7377 93.414 70.8031C93.7013 70.8685 93.9954 70.4294 94.098 69.869C94.2006 69.3086 93.9954 68.7201 93.7081 68.6547C93.4208 68.5893 93.0857 69.019 93.0241 69.5981Z" fill="#263238"/>
<path d="M91.3896 69.5234C91.6926 71.4748 92.1897 73.3605 92.867 75.1279C92.527 75.3534 92.1551 75.4753 91.7771 75.485C91.3992 75.4946 91.0242 75.3919 90.6782 75.1839L91.3896 69.5234Z" fill="#DE5753"/>
<path d="M95.2198 67.1042C95.1739 67.1266 95.1246 67.1324 95.0766 67.121C95.0287 67.1095 94.9837 67.0812 94.9462 67.0388C94.7051 66.7333 94.4149 66.5091 94.099 66.3842C93.783 66.2593 93.4501 66.2371 93.1267 66.3195C93.0597 66.3403 92.9895 66.3259 92.9299 66.2791C92.8704 66.2324 92.8259 66.1568 92.8053 66.0673C92.796 66.022 92.7934 65.9745 92.7977 65.9277C92.8019 65.881 92.813 65.8358 92.8302 65.795C92.8474 65.7541 92.8704 65.7183 92.8978 65.6897C92.9252 65.6611 92.9565 65.6402 92.9899 65.6283C93.397 65.5121 93.8186 65.5303 94.2195 65.6814C94.6204 65.8325 94.9892 66.1121 95.295 66.497C95.3475 66.5586 95.3804 66.6457 95.3868 66.7398C95.3932 66.8339 95.3725 66.9277 95.3292 67.0014C95.2981 67.0453 95.2609 67.0802 95.2198 67.1042Z" fill="#263238"/>
<path d="M87.3741 65.5069C87.3226 65.4901 87.2753 65.4546 87.2373 65.4041C87.2012 65.3232 87.1895 65.2263 87.2048 65.1339C87.2202 65.0414 87.2613 64.9608 87.3194 64.9091C87.672 64.6012 88.0741 64.4149 88.4911 64.3661C88.9081 64.3173 89.3275 64.4075 89.7134 64.6288C89.7738 64.6727 89.8196 64.7466 89.8412 64.8353C89.8629 64.924 89.8587 65.0206 89.8297 65.1052C89.7975 65.1878 89.7438 65.2509 89.6792 65.282C89.6146 65.3131 89.5438 65.31 89.4808 65.2733C89.1735 65.1116 88.8428 65.0502 88.515 65.094C88.1873 65.1378 87.8715 65.2856 87.593 65.5256C87.5211 65.5591 87.4424 65.5524 87.3741 65.5069Z" fill="#263238"/>
<path d="M85.1649 56.1848V59.5101C84.7346 59.7096 84.3752 60.1233 84.1584 60.6687C83.9416 61.2141 83.8833 61.851 83.9952 62.4524C84.5288 65.3387 83.0103 69.43 81.3071 70.8591C81.3071 70.8591 81.3687 69.6542 80.6231 69.8223C79.8776 69.9905 79.5219 76.2488 80.7052 79.4527C80.7052 79.4527 78.7558 76.4076 78.0923 69.6729C77.4835 63.4332 77.7777 58.3705 78.8926 56.1754L85.1649 56.1848Z" fill="#263238"/>
<path d="M76.9433 70.0558C77.1387 70.9524 77.4616 71.7876 77.8935 72.5137C78.3254 73.2397 78.8579 73.8424 79.4604 74.2872C81.0815 75.4642 82.2854 73.6147 82.1964 71.2515C82.0802 69.1498 81.1157 65.9366 79.3237 65.7591C77.5316 65.5816 76.4782 67.7954 76.9433 70.0558Z" fill="#E4897B"/>
<path d="M90.1104 77.0521C89.7273 77.8457 89.3867 78.676 89.0912 79.5367C88.9709 79.4987 88.8522 79.4519 88.7355 79.3966C87.135 78.7614 86.5536 77.7433 86.3826 76.8092C86.2989 76.3523 86.2989 75.8743 86.3826 75.4174C86.4241 75.159 86.4932 74.9104 86.5878 74.6795C87.4482 75.6702 88.4531 76.3994 89.5358 76.8186C89.8915 76.9773 90.1104 77.0521 90.1104 77.0521Z" fill="#263238"/>
<path d="M89.5632 76.8186L89.2485 77.5471C87.7437 76.9306 86.7451 76.2301 86.4099 75.4174C86.4514 75.159 86.5205 74.9104 86.6151 74.6795C87.4755 75.6702 88.4804 76.3994 89.5632 76.8186Z" fill="white"/>
<path d="M88.7353 79.3966C87.1347 78.7614 86.5533 77.7433 86.3823 76.8092C86.9877 77.0668 87.5551 77.4684 88.0581 77.9955C88.3854 78.3546 88.6222 78.8445 88.7353 79.3966Z" fill="#DE5753"/>
<path d="M85.1718 59.5101C85.1718 59.5101 97.3265 65.18 95.9243 53.9897C95.9243 53.9897 89.3715 48.7028 83.6123 50.188C77.853 51.6732 78.3455 59.753 78.3455 59.753L85.1718 59.5101Z" fill="#263238"/>
<path d="M77.6614 88.644C77.6614 88.644 78.4754 126.726 72.3741 162.66L68.5232 158.139C68.5232 158.139 70.37 112.837 68.5232 90.9979L77.6614 88.644Z" fill="#24A19C"/>
<path d="M91.5469 89.2605C91.5469 89.2605 99.495 107.316 103.024 161.446L106.143 159.344C106.143 159.344 102.587 107.475 98.0586 91.1566L91.5469 89.2605Z" fill="#24A19C"/>
<path opacity="0.2" d="M72.3741 162.66L68.5232 158.139C68.5232 158.139 69.3166 138.673 69.344 119.114C69.344 115.564 69.344 112.005 69.2688 108.568C69.1662 102.029 68.9404 95.9205 68.5232 90.9979L77.6614 88.644C77.6614 88.644 78.4754 126.726 72.3741 162.66Z" fill="white"/>
<path opacity="0.2" d="M91.5469 89.2605C91.5469 89.2605 99.495 107.316 103.024 161.446L106.143 159.344C106.143 159.344 102.587 107.475 98.0586 91.1566L91.5469 89.2605Z" fill="white"/>
<path d="M77.6958 85.8791C77.6958 85.8791 78.3798 89.0456 79.8299 90.3814L77.6685 98.0782V93.8281L77.0529 95.6963L74.3579 89.5314L77.6958 85.8791Z" fill="#24A19C"/>
<path d="M89.4194 87.2055C89.4194 87.2055 91.875 88.1956 93.8928 96.5463V93.1276L96.0406 94.5754C96.0406 94.5754 92.9489 88.9149 92.1896 88.233C91.3114 87.6944 90.3766 87.3476 89.4194 87.2055Z" fill="#24A19C"/>
<path d="M94.2346 113.845C94.2393 113.935 94.2309 114.025 94.21 114.11C94.1892 114.195 94.1562 114.274 94.1129 114.342C94.0697 114.409 94.0171 114.465 93.9582 114.505C93.8993 114.544 93.8351 114.568 93.7695 114.574L80.5341 115.658C80.4698 115.663 80.4053 115.65 80.3446 115.621C80.2838 115.591 80.2279 115.546 80.1802 115.487C80.1324 115.428 80.0937 115.356 80.0664 115.276C80.0391 115.197 80.0237 115.11 80.0211 115.022L79.7475 108.605L79.4739 102.216C79.4702 102.126 79.4798 102.036 79.502 101.952C79.5243 101.867 79.5587 101.789 79.6034 101.723C79.648 101.657 79.702 101.603 79.762 101.566C79.822 101.529 79.8868 101.509 79.9527 101.506L92.9966 101.021C93.122 101.015 93.2441 101.077 93.3372 101.191C93.4302 101.306 93.4871 101.466 93.4959 101.637L93.8721 107.839L94.2346 113.845Z" fill="#24A19C"/>
<path opacity="0.4" d="M94.2346 113.845C94.2393 113.935 94.2309 114.025 94.21 114.11C94.1892 114.195 94.1562 114.274 94.1129 114.342C94.0697 114.409 94.0171 114.465 93.9582 114.505C93.8993 114.544 93.8351 114.568 93.7695 114.574L80.5341 115.658C80.4698 115.663 80.4053 115.65 80.3446 115.621C80.2838 115.591 80.2279 115.546 80.1802 115.487C80.1324 115.428 80.0937 115.356 80.0664 115.276C80.0391 115.197 80.0237 115.11 80.0211 115.022L79.7475 108.605L79.4739 102.216C79.4702 102.126 79.4798 102.036 79.502 101.952C79.5243 101.867 79.5587 101.789 79.6034 101.723C79.648 101.657 79.702 101.603 79.762 101.566C79.822 101.529 79.8868 101.509 79.9527 101.506L92.9966 101.021C93.122 101.015 93.2441 101.077 93.3372 101.191C93.4302 101.306 93.4871 101.466 93.4959 101.637L93.8721 107.839L94.2346 113.845Z" fill="white"/>
<path opacity="0.2" d="M94.2347 113.845C94.2393 113.935 94.231 114.025 94.2101 114.11C94.1892 114.195 94.1562 114.274 94.113 114.342C94.0698 114.409 94.0172 114.465 93.9582 114.505C93.8993 114.544 93.8352 114.568 93.7696 114.574L80.5342 115.658C80.4698 115.663 80.4054 115.65 80.3446 115.621C80.2838 115.591 80.2279 115.546 80.1802 115.487C80.1325 115.428 80.0938 115.356 80.0665 115.276C80.0392 115.197 80.0238 115.11 80.0212 115.022L79.7476 108.605C80.6026 106.177 81.7448 103.468 82.5383 103.505C83.9815 103.571 83.2975 109.754 84.0362 110.595C84.775 111.435 86.9774 105.654 87.2237 106.214C87.4699 106.774 87.4084 108.745 87.5178 109.231C87.5999 109.577 91.6218 108.484 93.8722 107.839L94.2347 113.845Z" fill="black"/>
<path opacity="0.3" d="M69.344 119.114C69.344 115.564 69.344 112.005 69.2688 108.568C69.775 107.055 70.1238 106.065 70.1238 106.065C70.6598 108.195 70.8672 110.455 70.733 112.7C70.5988 114.946 70.1259 117.13 69.344 119.114Z" fill="black"/>
<path d="M63.7352 102.543C63.7352 102.543 56.3959 126.325 54.9595 126.1C53.5231 125.876 51.8404 120.076 51.8404 120.076L48.3521 122.364C48.3521 122.364 50.9718 131.471 54.9595 133.937C58.9472 136.403 67.2168 112.874 67.2168 112.874L63.7352 102.543Z" fill="#24A19C"/>
<path opacity="0.6" d="M63.7352 102.543C63.7352 102.543 56.3959 126.325 54.9595 126.1C53.5231 125.876 51.8404 120.076 51.8404 120.076L48.3521 122.364C48.3521 122.364 50.9718 131.471 54.9595 133.937C58.9472 136.403 67.2168 112.874 67.2168 112.874L63.7352 102.543Z" fill="white"/>
<path d="M68.5232 90.9979C66.6901 92.1281 57.7844 114.639 57.7844 114.639L65.3973 121.981L69.1183 114.639C69.1183 114.639 70.0075 114.06 70.0075 106.111C69.9648 101.01 69.4664 95.9344 68.5232 90.9979Z" fill="#24A19C"/>
<path d="M143.135 193.364L143.222 193.196C143.373 192.906 143.323 192.504 143.11 192.298L140.014 189.298C139.801 189.092 139.507 189.16 139.356 189.45L139.269 189.618C139.118 189.908 139.168 190.311 139.381 190.516L142.477 193.517C142.689 193.723 142.984 193.654 143.135 193.364Z" fill="#263238"/>
<path d="M49.2175 96.0843L44.9346 104.327L40.7397 100.262C40.1154 99.6566 39.6926 98.7377 39.5644 97.707C39.4362 96.6764 39.6131 95.6184 40.0561 94.7658L40.9982 92.9528C41.4413 92.1002 42.1142 91.5228 42.8689 91.3478C43.6236 91.1727 44.3984 91.4143 45.0227 92.0193L49.2175 96.0843Z" fill="#263238"/>
<path d="M127.634 192.569L141.376 192.822L142.231 191.178L137.484 173.542C133.317 172.437 129.369 170.142 125.897 166.808L47.9689 92.4737C47.7698 92.2838 47.5239 92.2086 47.2844 92.2646C47.045 92.3205 46.8314 92.5031 46.6898 92.7726L41.8198 102.113C41.7497 102.247 41.6995 102.398 41.6723 102.558C41.645 102.719 41.6411 102.885 41.6608 103.047C41.6805 103.209 41.7234 103.364 41.787 103.504C41.8507 103.643 41.9339 103.764 42.0318 103.86L119.139 179.791C122.594 183.166 125.488 187.498 127.634 192.504V192.569Z" fill="#263238"/>
<path opacity="0.3" d="M127.628 192.569C125.49 187.559 122.599 183.223 119.146 179.847L100.548 161.539L99.9054 160.904L99.2693 160.278L48.0171 109.838L47.381 109.203L46.7381 108.577L42.0253 103.907C41.9281 103.811 41.8457 103.691 41.7828 103.551C41.7198 103.412 41.6776 103.258 41.6586 103.096C41.6395 102.935 41.644 102.77 41.6717 102.611C41.6994 102.452 41.7498 102.302 41.8201 102.169L46.6902 92.8286C46.8294 92.5582 47.0414 92.374 47.2798 92.3163C47.5181 92.2585 47.7635 92.3319 47.9624 92.5204L52.7504 97.06L53.4344 97.6858L54.0842 98.3023L105.884 147.678L107.183 148.911L125.973 166.826C127.728 168.501 129.606 169.926 131.575 171.076C133.5 172.2 135.509 173.036 137.566 173.57L137.778 174.346L138.107 175.579L142.286 191.196L141.431 192.84L129.249 192.625H128.285L127.628 192.569Z" fill="white"/>
<path d="M125.724 176.7L125.91 176.341C126.242 175.702 126.132 174.816 125.664 174.362L109.414 158.615C108.946 158.162 108.297 158.312 107.965 158.952L107.779 159.31C107.447 159.949 107.557 160.835 108.025 161.289L124.274 177.036C124.743 177.49 125.392 177.339 125.724 176.7Z" fill="#263238"/>
<g opacity="0.2">
<path d="M128.229 192.579L137.723 174.318L138.052 175.551L129.194 192.597L128.229 192.579Z" fill="black"/>
</g>
<g opacity="0.2">
<path d="M107.128 148.892L105.829 147.659L99.269 160.278L99.912 160.914L100.548 161.549L107.128 148.892Z" fill="black"/>
</g>
<g opacity="0.2">
<path d="M54.0361 98.2743L53.3521 97.6578L52.7091 97.032L46.7173 108.558L47.4013 109.184L48.0374 109.82L54.0361 98.2743Z" fill="black"/>
</g>
<path d="M107.559 144.623L106.916 146.22C106.485 146.166 106.051 146.233 105.64 146.418C105.23 146.603 104.851 146.901 104.529 147.295C104.529 147.295 104.98 150.947 105.138 151.414C105.493 152.441 109.358 154.963 110.288 154.954C110.582 154.954 110.856 152.273 110.678 151.414C110.253 150.297 109.731 149.253 109.125 148.303L109.652 146.893L107.559 144.623Z" fill="#E4897B"/>
<path d="M99.7549 99.3952C99.7549 99.3952 111.595 111.062 114.988 123.812C117.532 133.396 109.919 148.369 109.919 148.369L106.704 145.128C106.704 145.128 112.053 131.023 110.685 125.129C109.317 119.235 102.785 113.388 102.785 113.388L99.7549 99.3952Z" fill="#24A19C"/>
<path opacity="0.6" d="M99.7549 99.3952C99.7549 99.3952 111.595 111.062 114.988 123.812C117.532 133.396 109.919 148.369 109.919 148.369L106.704 145.128C106.704 145.128 112.053 131.023 110.685 125.129C109.317 119.235 102.785 113.388 102.785 113.388L99.7549 99.3952Z" fill="white"/>
<path d="M111.355 112.089L107.539 121.019L105.658 119.908L102.484 118.039L100.651 106.933L98.0583 91.222C101.232 93.277 111.355 112.089 111.355 112.089Z" fill="#24A19C"/>
<path d="M51.4575 120.337L50.6709 116.909C50.6709 116.909 51.8337 116.582 51.8405 115.181C51.8474 113.78 51.7379 110.343 51.2523 109.661C50.0541 108.353 48.7876 107.167 47.4629 106.111C46.861 105.691 46.2112 108.839 46.1838 110.212C46.1565 111.585 48.3521 116.087 48.3521 116.087L49.2482 121.776L51.4575 120.337Z" fill="#E4897B"/>
<path opacity="0.2" d="M105.658 119.889L102.484 118.021L100.651 106.915C102.6 109.82 105.541 114.957 105.658 119.889Z" fill="black"/>
</svg>
